<svg xmlns="http://www.w3.org/2000/svg" width="14" height="14" viewBox="0 0 500 500" version="1.1">
	<path d="M 216.219 2.519 C 169.242 13.390, 127.834 36.248, 93.982 70 C 9.425 154.304, -4.136 286.874, 61.591 386.645 C 103.840 450.775, 172.019 491.675, 249 499.067 C 263.818 500.490, 288.819 499.768, 304 497.479 C 373.926 486.933, 436.319 447.085, 475.178 388.155 C 483.634 375.331, 483.999 372.017, 477.404 367.940 C 474.022 365.851, 473.942 365.849, 460.753 367.541 C 450.497 368.858, 443.090 369.119, 428 368.697 C 392.896 367.714, 365.873 361.016, 334.449 345.509 C 286.135 321.667, 251.170 286.699, 227.447 238.500 C 211.075 205.235, 203.931 174.179, 203.872 136 C 203.806 94.242, 213.533 57.391, 234.358 20.507 C 240.411 9.785, 240.915 7.684, 238.228 4.367 C 234.158 -0.657, 231.066 -0.917, 216.219 2.519 M 196.958 27.578 C 157.987 40.597, 121.929 64.992, 95.085 96.500 C 79.958 114.256, 72.219 126.151, 61.906 147.500 C 31.983 209.442, 31.232 281.087, 59.835 344.851 C 77.112 383.366, 107.825 419.129, 144.500 443.438 C 163.044 455.730, 189.025 467.287, 212 473.465 C 244.074 482.089, 280.566 483.334, 312.500 476.893 C 366.942 465.912, 418.233 433.929, 450.249 391 L 452.859 387.500 437.566 387.837 C 376.469 389.184, 314.431 365.384, 266.753 322.306 C 231.903 290.818, 204.806 245.964, 192.902 200.055 C 187.941 180.922, 185.920 166.257, 185.292 144.834 C 184.074 103.309, 191.238 66.818, 207.619 31.091 C 209.488 27.017, 210.881 23.548, 210.716 23.383 C 210.551 23.218, 204.360 25.106, 196.958 27.578" stroke="none" fill="#000000" fill-rule="evenodd"></path>
</svg>