<svg xmlns="http://www.w3.org/2000/svg" width="14" height="14" viewBox="0 0 500 500" version="1.1">
	<path d="M 240.467 1.998 C 232.926 5.731, 232.540 7.251, 232.207 34.500 C 231.922 57.845, 231.977 58.622, 234.207 62.977 C 237.375 69.163, 241.253 71.176, 250 71.176 C 258.747 71.176, 262.625 69.163, 265.793 62.977 C 268.023 58.622, 268.078 57.845, 267.793 34.500 C 267.526 12.661, 267.322 10.205, 265.522 7.229 C 261.399 0.412, 248.931 -2.192, 240.467 1.998 M 79.500 68.160 C 76.337 69.899, 69.971 76.241, 68.418 79.200 C 66.543 82.771, 66.621 88.340, 68.599 92.300 C 70.812 96.727, 99.659 125.703, 104.210 128.070 C 106.251 129.132, 109.311 130, 111.010 130 C 119.479 130, 130 119.474, 130 111 C 130 109.306, 129.132 106.251, 128.070 104.210 C 125.703 99.659, 96.727 70.812, 92.300 68.599 C 88.628 66.764, 82.426 66.552, 79.500 68.160 M 407.500 68.644 C 403.006 70.987, 374.166 99.909, 371.819 104.426 C 369.164 109.537, 369.774 115.704, 373.405 120.465 C 380.029 129.149, 388.222 132, 395.574 128.181 C 400.283 125.734, 429.130 96.844, 431.401 92.300 C 433.379 88.340, 433.457 82.771, 431.582 79.200 C 429.946 76.083, 423.512 69.755, 420.316 68.118 C 417.240 66.544, 411.041 66.798, 407.500 68.644 M 230 117.538 C 178.312 125.710, 135.963 162.780, 121.513 212.500 C 101.313 282.006, 140.433 355.780, 208.971 377.431 C 224.221 382.248, 232.441 383.455, 250 383.455 C 267.559 383.455, 275.779 382.248, 291.029 377.431 C 331.320 364.703, 364.703 331.320, 377.431 291.029 C 382.248 275.779, 383.455 267.559, 383.455 250 C 383.455 232.441, 382.248 224.221, 377.431 208.971 C 364.294 167.386, 329.751 133.792, 287.500 121.513 C 269.016 116.141, 248.016 114.689, 230 117.538 M 233.016 153.534 C 179.851 163.152, 144.304 213.608, 153.509 266.391 C 162.852 319.969, 213.300 355.749, 266.436 346.483 C 336.737 334.224, 370.649 254.819, 331.122 195.020 C 310.497 163.815, 270.254 146.798, 233.016 153.534 M 10.469 233.062 C 1.305 235.728, -3.012 249.147, 1.979 259.456 C 5.661 267.063, 7.208 267.460, 34.500 267.793 C 57.845 268.078, 58.622 268.023, 62.977 265.793 C 69.163 262.625, 71.176 258.747, 71.176 250 C 71.176 241.256, 69.160 237.365, 63.015 234.250 C 58.784 232.105, 57.523 232.004, 36.038 232.090 C 23.642 232.140, 12.136 232.577, 10.469 233.062 M 437.023 234.207 C 430.837 237.375, 428.824 241.253, 428.824 250 C 428.824 258.747, 430.837 262.625, 437.023 265.793 C 441.378 268.023, 442.155 268.078, 465.500 267.793 C 487.339 267.526, 489.795 267.322, 492.771 265.522 C 502.357 259.726, 502.357 240.274, 492.771 234.478 C 489.795 232.678, 487.339 232.474, 465.500 232.207 C 442.155 231.922, 441.378 231.977, 437.023 234.207 M 104.500 371.644 C 100.127 373.924, 71.197 402.851, 68.930 407.210 C 66.649 411.595, 66.444 417.041, 68.418 420.800 C 70.054 423.917, 76.488 430.245, 79.684 431.882 C 82.992 433.575, 88.647 433.225, 92.790 431.070 C 97.341 428.703, 126.188 399.727, 128.401 395.300 C 131.639 388.819, 129.391 381.185, 122.448 375.088 C 116.347 369.732, 110.369 368.584, 104.500 371.644 M 382.500 371.567 C 372.380 376.811, 367.581 387.259, 371.599 395.300 C 373.812 399.727, 402.659 428.703, 407.210 431.070 C 411.595 433.351, 417.041 433.556, 420.800 431.582 C 423.917 429.946, 430.245 423.512, 431.882 420.316 C 433.575 417.008, 433.225 411.353, 431.070 407.210 C 428.703 402.659, 399.727 373.812, 395.300 371.599 C 391.257 369.579, 386.360 369.567, 382.500 371.567 M 245.380 428.991 C 239.605 429.845, 236.134 432.442, 233.841 437.626 C 232.027 441.728, 231.895 443.970, 232.185 465.791 C 232.471 487.316, 232.682 489.801, 234.478 492.771 C 240.274 502.357, 259.726 502.357, 265.522 492.771 C 267.322 489.795, 267.526 487.339, 267.793 465.500 C 268.078 442.155, 268.023 441.378, 265.793 437.023 C 262.280 430.163, 255.498 427.494, 245.380 428.991" stroke="none" fill="#000000" fill-rule="evenodd"></path>
</svg>