<?xml version="1.0" standalone="no"?>
<!DOCTYPE svg PUBLIC "-//W3C//DTD SVG 20010904//EN"
 "http://www.w3.org/TR/2001/REC-SVG-20010904/DTD/svg10.dtd">
<svg version="1.0" xmlns="http://www.w3.org/2000/svg"
 width="800.000000pt" height="800.000000pt" viewBox="0 0 800.000000 800.000000"
 preserveAspectRatio="xMidYMid meet">

<g transform="translate(0.000000,800.000000) scale(0.100000,-0.100000)"
fill="#000000" stroke="none">
<path d="M5326 7659 c-52 -12 -95 -45 -112 -85 -8 -18 -14 -35 -14 -37 0 -2
23 -2 51 1 75 7 162 -22 195 -65 69 -91 103 -271 74 -392 -24 -100 -144 -250
-273 -341 l-67 -48 -81 34 c-504 213 -1248 237 -1942 63 -688 -173 -1281 -564
-1743 -1149 -310 -394 -528 -872 -628 -1380 -43 -217 -59 -395 -60 -645 0
-324 21 -494 104 -826 78 -308 192 -576 383 -894 327 -545 842 -1000 1438
-1271 312 -141 662 -236 1019 -275 165 -18 544 -16 710 5 401 49 738 153 1110
342 669 339 1129 815 1461 1509 288 603 385 1246 288 1909 -36 246 -161 671
-271 921 -121 274 -362 624 -602 873 -67 69 -88 97 -81 107 140 198 203 367
212 570 6 133 -6 200 -54 296 -41 82 -99 143 -207 218 l-78 54 -146 6 -146 6
-23 88 c-72 281 -297 458 -517 406z m266 -158 c51 -38 139 -141 173 -203 61
-112 54 -251 -27 -498 -28 -85 -53 -162 -55 -170 -3 -8 11 1 30 21 38 39 73
122 90 212 7 31 15 57 18 57 4 0 18 -21 30 -47 19 -39 24 -68 27 -158 4 -124
-14 -224 -68 -364 -47 -121 -100 -194 -244 -336 -148 -147 -242 -209 -472
-314 -176 -80 -245 -102 -526 -171 -134 -32 -270 -68 -302 -79 -33 -12 -61
-19 -63 -17 -7 7 90 86 143 117 29 16 125 63 213 103 88 41 200 98 248 128 48
31 132 81 186 112 360 210 530 369 614 577 13 33 22 63 20 66 -10 9 -63 -26
-107 -72 -161 -168 -409 -321 -625 -386 -55 -17 -161 -50 -235 -74 -74 -23
-220 -59 -325 -79 -395 -75 -510 -111 -624 -195 -36 -26 -73 -52 -83 -57 -26
-14 -162 -206 -191 -270 -36 -82 -50 -185 -45 -339 4 -111 8 -137 28 -176 60
-122 -58 -97 -126 25 -83 151 -84 286 -5 531 28 88 66 184 84 214 18 30 72 96
120 147 l89 94 216 106 c275 135 280 136 632 232 464 127 667 204 797 305 32
25 104 88 159 141 87 82 107 107 142 178 61 125 82 212 82 340 0 130 -23 210
-82 288 l-40 53 32 -7 c18 -3 50 -19 72 -35z m411 -455 c149 -50 221 -90 259
-143 48 -66 73 -118 87 -181 24 -114 5 -266 -49 -395 -37 -88 -144 -267 -193
-323 -136 -155 -437 -303 -737 -363 -130 -26 -302 -51 -355 -51 -38 0 -35 2
57 44 241 108 453 244 594 378 116 111 179 194 244 319 68 133 94 229 94 355
0 95 -2 104 -37 175 -20 41 -52 101 -72 134 -19 33 -35 63 -35 68 0 15 74 6
143 -17z m-1653 -521 c52 -8 139 -28 194 -44 54 -17 108 -31 120 -31 17 0 18
-2 6 -10 -30 -20 -229 -79 -385 -115 -88 -21 -207 -52 -265 -71 -204 -65 -488
-230 -590 -341 -139 -152 -230 -355 -256 -576 -3 -32 -12 -60 -18 -63 -6 -2
-135 -15 -288 -29 -319 -29 -398 -39 -528 -67 -175 -37 -293 -89 -383 -169
-45 -39 -47 -43 -47 -94 0 -112 39 -219 115 -320 43 -56 48 -70 166 -454 92
-301 116 -367 257 -716 44 -110 83 -209 86 -221 6 -20 1 -21 -126 -33 -455
-41 -761 -110 -968 -217 -108 -55 -160 -109 -182 -186 l-15 -53 -26 85 c-192
622 -163 1273 85 1905 256 651 718 1164 1333 1479 298 153 481 219 782 285
346 75 664 94 933 56z m885 -406 c-99 -100 -278 -208 -620 -374 -266 -129
-475 -245 -544 -302 -30 -24 -112 -99 -181 -167 -118 -114 -127 -125 -143
-181 -20 -71 -23 -109 -13 -152 4 -18 5 -33 2 -33 -3 0 -19 21 -37 46 -31 45
-32 49 -26 124 14 179 117 345 298 480 124 92 258 156 594 280 317 117 551
222 665 298 25 17 47 31 50 31 2 1 -18 -22 -45 -50z m890 -494 c39 -39 106
-116 150 -171 43 -54 103 -129 132 -165 29 -36 53 -75 53 -85 0 -11 25 -62 57
-114 291 -489 430 -1062 394 -1628 -18 -276 -85 -602 -122 -593 -8 1 -56 14
-108 27 -68 18 -153 28 -315 39 -121 8 -286 19 -365 25 -180 14 -278 3 -421
-45 -145 -50 -255 -75 -323 -75 -50 0 -68 6 -125 39 -43 25 -95 45 -147 56
-44 10 -98 26 -119 37 -40 20 -40 20 -56 1 -16 -20 -16 -20 -43 3 -15 13 -46
28 -70 34 -157 41 -166 46 -124 75 129 89 213 159 335 279 279 272 396 473
409 698 13 220 -62 374 -237 488 -35 22 -90 50 -122 61 -32 12 -58 24 -58 28
0 3 11 33 25 66 30 74 33 162 6 220 -68 147 -306 249 -739 316 -82 13 -141 26
-139 32 2 6 21 16 43 24 21 7 44 20 50 27 5 8 46 24 90 35 161 40 284 59 709
106 400 44 605 84 775 149 94 37 217 104 239 130 12 14 18 12 55 -16 22 -18
73 -64 111 -103z m-2946 -495 c17 -81 15 -109 -11 -115 -13 -2 -117 -9 -233
-15 -257 -13 -394 -32 -505 -70 -78 -27 -86 -28 -102 -13 -10 9 -18 22 -18 28
0 7 -7 18 -15 25 -22 18 -38 0 -38 -41 0 -60 86 -110 248 -144 46 -9 199 -22
379 -30 165 -8 405 -20 531 -26 241 -12 584 -7 745 11 222 25 405 86 452 150
37 51 0 78 -157 114 -178 41 -292 56 -424 56 -68 0 -122 -2 -120 -4 2 -2 56
-9 119 -16 239 -24 459 -66 485 -91 7 -7 5 -8 -5 -5 -8 3 -139 15 -291 25
-342 25 -419 37 -419 63 0 26 23 69 52 94 31 29 102 35 272 23 355 -23 667
-139 722 -266 12 -28 12 -38 -4 -80 -17 -47 -20 -49 -122 -99 -58 -29 -105
-58 -105 -65 0 -7 18 -20 40 -28 22 -8 44 -20 48 -25 13 -17 0 -133 -27 -246
-14 -58 -29 -127 -32 -155 l-6 -50 20 24 c22 28 43 92 68 209 14 67 22 87 46
107 44 37 102 49 173 37 55 -10 65 -16 120 -74 160 -169 189 -412 75 -627
-107 -201 -367 -467 -612 -626 -60 -39 -83 -61 -104 -100 -79 -144 -143 -213
-228 -243 -26 -9 -50 -21 -51 -27 -2 -5 -15 -53 -30 -105 -14 -52 -37 -118
-50 -147 -23 -51 -24 -52 -102 -77 -336 -106 -844 -92 -1082 29 -27 13 -67 45
-90 71 -36 42 -41 52 -41 98 0 73 -25 248 -50 352 -25 109 -64 229 -142 439
-33 88 -100 279 -150 425 -50 146 -128 369 -175 495 -76 205 -91 236 -134 286
-68 79 -119 159 -119 189 0 14 17 48 38 76 35 48 42 53 135 84 186 61 449 104
827 134 91 8 170 14 177 15 6 0 16 -22 22 -49z m-661 -2094 c36 -19 72 -69 72
-102 0 -20 -6 -21 -162 -27 -231 -9 -405 -41 -529 -96 -37 -17 -39 -20 -20
-26 26 -8 77 -2 271 32 173 30 337 30 367 0 9 -9 14 -19 11 -22 -3 -4 -53 -11
-110 -16 -154 -14 -244 -29 -331 -56 -140 -43 -65 -56 163 -27 138 18 212 11
258 -24 23 -18 23 -18 -70 -31 -107 -14 -218 -40 -218 -51 0 -14 61 -20 199
-21 135 0 200 -12 209 -36 3 -10 -29 -13 -137 -13 -92 0 -141 -4 -141 -11 0
-16 65 -39 112 -39 24 0 50 -5 58 -10 10 -7 -8 -10 -60 -10 -82 0 -449 70
-605 115 -109 32 -230 93 -276 141 l-34 35 18 30 c32 57 18 78 -23 34 -19 -20
-25 -40 -28 -89 -4 -62 -3 -64 30 -89 80 -61 166 -91 513 -177 278 -69 733
-131 1095 -150 409 -21 974 26 1276 106 138 37 143 38 157 25 22 -17 96 -42
187 -60 l85 -18 -50 -25 c-103 -52 -204 -80 -454 -124 -222 -39 -285 -46 -476
-54 -121 -5 -263 -14 -315 -20 -136 -14 -269 -12 -326 4 -27 8 -107 17 -179
21 -298 14 -454 33 -585 70 -47 13 -116 27 -155 30 -117 10 -171 24 -422 106
-372 122 -481 176 -523 259 -40 78 -12 168 67 223 85 59 443 167 633 191 69 9
139 18 155 20 17 2 82 3 145 2 86 -2 123 -7 148 -20z m2127 -108 c105 -21 303
-82 319 -98 6 -6 -26 -26 -86 -54 -140 -65 -229 -94 -334 -111 -52 -9 -106
-20 -119 -25 -26 -10 -75 -56 -75 -70 0 -5 29 -13 65 -19 85 -15 115 -27 115
-45 0 -23 -34 -36 -129 -51 -47 -8 -129 -23 -181 -34 -52 -12 -108 -21 -123
-21 l-29 0 42 35 c84 70 140 170 140 251 0 23 6 37 17 41 9 4 95 1 192 -5 99
-6 179 -8 184 -3 13 13 -2 50 -26 66 -13 8 -63 17 -120 21 -59 4 -97 11 -97
18 0 6 14 39 32 74 l33 63 40 -7 c22 -3 85 -15 140 -26z m1380 -57 c33 -6 152
-15 265 -21 327 -16 472 -43 478 -88 2 -12 -15 -77 -38 -144 -144 -428 -538
-985 -870 -1231 -52 -39 -118 -92 -147 -119 -29 -26 -64 -53 -78 -58 -36 -14
-99 -12 -170 5 -33 8 -100 20 -150 26 -49 6 -110 19 -134 30 -41 18 -43 21
-37 51 7 37 40 76 76 90 14 6 98 14 187 17 89 4 166 10 170 15 4 4 0 14 -10
21 -19 13 -43 15 -492 35 -418 19 -441 24 -611 153 l-101 77 -179 15 c-328 28
-429 51 -490 111 -19 20 -33 41 -31 47 2 6 21 20 42 31 34 17 66 21 230 27
169 6 202 10 305 38 63 17 228 60 365 95 138 35 300 82 360 104 61 22 153 56
206 75 53 20 124 54 158 75 47 31 75 42 124 47 34 4 75 14 91 22 16 9 86 30
154 48 124 33 161 52 147 75 -11 17 -90 7 -195 -26 -114 -35 -216 -38 -258 -7
l-30 22 -145 -25 c-181 -30 -341 -43 -432 -34 -76 7 -145 26 -145 40 0 5 22
16 49 25 55 18 64 32 55 80 -6 33 -5 33 43 44 28 5 102 30 166 55 145 56 218
70 322 61 96 -8 169 3 340 51 234 65 272 69 410 45z m-4560 -453 c33 -22 88
-53 123 -69 89 -43 79 -65 -24 -53 -68 8 -70 -3 -16 -87 l37 -60 135 8 c165
10 270 7 332 -8 26 -6 89 -38 140 -70 107 -69 150 -84 308 -104 63 -8 192 -25
285 -39 237 -35 373 -46 569 -46 l169 0 63 -60 c103 -99 195 -131 444 -155 85
-9 173 -18 195 -20 47 -6 106 -40 228 -130 123 -90 189 -109 343 -103 133 6
128 9 173 -100 36 -88 50 -107 93 -137 46 -31 122 -52 243 -65 146 -16 147
-17 89 -53 -84 -52 -324 -164 -434 -202 -503 -173 -1089 -201 -1610 -77 -450
108 -893 322 -1200 580 -261 218 -520 536 -692 847 -49 90 -158 318 -158 331
0 3 24 -16 53 -42 28 -26 79 -65 112 -86z m935 -257 c380 -79 991 -123 1421
-102 209 11 441 33 486 47 11 4 7 -3 -11 -19 -58 -50 -135 -63 -526 -89 -242
-16 -633 -16 -805 1 -265 26 -562 90 -700 152 -47 20 -48 22 -25 29 28 8 28 8
160 -19z"/>
<path d="M3780 6453 c-171 -13 -418 -64 -630 -129 -313 -97 -631 -263 -856
-446 -44 -36 -98 -75 -120 -86 -51 -26 -386 -378 -425 -447 -51 -89 -60 -85
194 -85 254 1 296 4 769 62 l347 42 12 55 c29 143 108 317 215 477 47 72 69
93 184 179 221 165 416 271 542 295 53 10 98 33 98 49 0 5 3 16 6 25 5 14 -11
16 -142 14 -82 -1 -169 -3 -194 -5z"/>
<path d="M1652 5203 c-16 -3 -32 -24 -56 -71 -19 -37 -65 -124 -103 -193 -59
-109 -143 -313 -132 -323 2 -2 127 -6 277 -9 311 -7 301 -10 237 79 -19 27
-43 60 -52 74 -13 18 -18 43 -18 95 1 92 24 136 128 243 l81 82 -55 0 c-31 0
-80 4 -110 9 -73 13 -169 19 -197 14z"/>
<path d="M1301 4448 c-31 -97 -52 -185 -66 -278 -7 -47 -12 -86 -12 -87 5 -4
837 -7 837 -3 0 3 -11 68 -25 145 -24 140 -39 196 -69 254 l-17 31 -313 0
-314 0 -21 -62z"/>
<path d="M1284 3963 l-90 -4 -12 -147 c-7 -81 -12 -154 -12 -162 0 -13 66 -15
535 -15 358 0 535 3 535 10 -1 5 -29 80 -64 165 l-64 155 -368 0 c-203 1 -410
-1 -460 -2z"/>
<path d="M1198 3503 c-26 -4 -27 -6 -22 -51 3 -26 12 -75 20 -110 8 -35 14
-79 14 -98 l0 -36 498 5 c334 2 526 8 585 17 86 12 87 13 87 41 0 15 -19 63
-41 106 -23 43 -45 89 -49 103 l-6 25 -530 1 c-291 0 -541 -1 -556 -3z"/>
<path d="M1235 3051 c-3 -5 0 -22 7 -36 12 -27 13 -27 80 -20 85 8 125 21 139
46 9 18 4 19 -105 19 -63 0 -117 -4 -121 -9z"/>
<path d="M5882 5576 c-243 -119 -610 -200 -1002 -221 -63 -3 -153 -11 -200
-16 -93 -11 -240 -47 -240 -59 0 -12 740 -22 1327 -18 478 3 523 4 523 19 0
37 -192 286 -246 319 -44 28 -59 26 -162 -24z"/>
<path d="M4839 5183 c12 -24 48 -55 91 -81 63 -37 78 -61 96 -155 16 -83 16
-91 -1 -173 l-18 -86 29 -23 c61 -50 68 -50 861 -50 408 0 745 3 749 7 18 18
-116 302 -230 486 l-57 92 -765 0 c-725 0 -764 -1 -755 -17z"/>
<path d="M5260 4510 c-12 -7 -12 -12 1 -27 61 -71 130 -234 144 -339 l6 -51
127 -6 c70 -4 380 -7 690 -7 l563 0 -6 58 c-8 60 -39 190 -73 307 l-21 70
-709 2 c-389 1 -715 -2 -722 -7z"/>
<path d="M5391 3939 c-6 -18 -11 -41 -11 -52 0 -11 -22 -67 -50 -124 -27 -57
-50 -108 -50 -113 0 -6 193 -10 543 -10 298 0 647 -3 776 -7 l233 -6 -3 171
-4 172 -712 0 -711 0 -11 -31z"/>
<path d="M5091 3430 c-34 -38 -89 -91 -122 -116 -32 -25 -65 -57 -73 -72 l-14
-27 917 0 c504 0 937 1 962 3 l46 2 12 113 c6 62 11 124 11 138 l0 24 -838 3
-839 3 -62 -71z"/>
<path d="M6010 3073 c-71 -28 -69 -25 -25 -34 22 -4 148 -15 280 -24 208 -14
382 -38 436 -59 19 -8 39 31 39 74 l0 29 -287 5 c-159 3 -319 7 -358 10 -38 3
-77 2 -85 -1z"/>
<path d="M4904 3059 c-2 -4 13 -13 33 -20 21 -6 85 -37 142 -67 95 -50 111
-56 180 -60 65 -4 88 0 151 23 112 40 177 62 255 84 153 44 138 46 -325 47
-237 0 -433 -3 -436 -7z"/>
<path d="M2095 4930 c-5 -22 0 -42 20 -79 43 -78 73 -101 162 -122 119 -28
278 -43 306 -27 20 11 15 13 -53 24 -192 30 -316 95 -380 199 -26 43 -46 45
-55 5z"/>
<path d="M2200 4721 c0 -21 50 -78 85 -98 47 -25 128 -41 435 -85 197 -28 259
-32 500 -36 405 -6 719 14 928 60 59 13 81 29 30 22 -164 -22 -946 -31 -1183
-14 -299 22 -574 73 -726 135 -71 28 -69 28 -69 16z"/>
<path d="M2390 4476 c0 -40 3 -41 107 -55 79 -11 514 -33 520 -27 2 2 -8 11
-22 20 -36 24 -149 44 -317 56 -79 6 -164 18 -190 26 -26 8 -58 14 -72 14 -23
0 -26 -4 -26 -34z"/>
<path d="M2410 4339 c0 -37 1 -39 53 -55 62 -19 279 -30 392 -19 l78 7 -22 21
c-19 20 -34 22 -134 24 -80 2 -148 11 -239 31 l-128 29 0 -38z"/>
<path d="M4862 4263 c-19 -9 -55 -41 -80 -71 -101 -118 -135 -151 -165 -162
-30 -10 -35 -18 -79 -153 -26 -79 -91 -248 -146 -377 -98 -233 -182 -449 -182
-472 0 -20 33 18 69 79 85 143 115 177 232 257 62 42 127 83 146 91 18 8 33
19 33 24 0 6 62 72 138 148 139 140 181 198 230 315 22 52 27 79 27 155 0 86
-2 94 -30 135 -31 43 -32 43 -95 45 -45 2 -75 -2 -98 -14z m122 -161 c16 -9
-2 -108 -32 -174 -19 -43 -42 -75 -67 -94 -21 -15 -46 -47 -55 -70 -20 -47
-67 -87 -194 -169 l-89 -57 7 56 c19 167 136 349 304 475 65 49 88 55 126 33z"/>
<path d="M2444 4211 c-14 -14 0 -43 29 -58 28 -16 65 -18 276 -21 199 -3 242
-1 239 10 -7 20 -66 37 -131 37 -32 1 -117 8 -190 16 -169 18 -217 22 -223 16z"/>
<path d="M2470 4068 c0 -7 5 -30 11 -50 l10 -38 254 0 c139 0 260 3 269 6 54
21 -26 39 -235 54 -141 10 -247 23 -291 36 -11 3 -18 0 -18 -8z"/>
<path d="M2516 3911 c-4 -6 1 -24 11 -41 16 -29 21 -30 88 -31 38 -1 144 -3
235 -5 160 -3 214 4 181 25 -19 12 -136 29 -286 41 -71 5 -151 13 -176 16 -29
3 -49 1 -53 -5z"/>
<path d="M2575 3754 c4 -10 9 -27 12 -36 7 -25 20 -27 213 -30 128 -1 181 1
199 11 13 7 19 17 14 22 -4 4 -91 15 -193 24 -102 8 -200 18 -219 22 -31 5
-33 4 -26 -13z"/>
<path d="M2634 3617 c4 -12 9 -34 12 -49 l7 -28 156 -1 c86 -1 163 -1 171 0
69 7 82 34 23 50 -21 6 -99 15 -173 21 -75 5 -151 14 -169 20 -31 9 -33 8 -27
-13z"/>
<path d="M2695 3456 c4 -12 9 -31 12 -42 3 -14 15 -24 35 -28 50 -10 222 -7
304 5 l78 12 -23 18 c-19 16 -41 19 -130 19 -61 1 -144 8 -194 19 l-88 18 6
-21z"/>
<path d="M2770 3296 c0 -4 6 -22 14 -41 18 -41 48 -59 90 -51 17 3 93 10 169
16 128 10 210 30 193 48 -4 3 -88 9 -187 13 -99 4 -203 10 -230 14 -27 4 -49
4 -49 1z"/>
<path d="M2826 3121 c3 -9 9 -24 11 -33 8 -27 59 -31 230 -18 155 12 236 32
202 50 -8 4 -112 10 -232 12 -198 5 -217 4 -211 -11z"/>
<path d="M2860 2981 c0 -27 5 -34 35 -47 49 -20 169 -28 237 -16 72 14 134 40
122 51 -5 5 -81 14 -169 20 -88 7 -175 14 -192 18 -32 5 -33 4 -33 -26z"/>
<path d="M2890 2847 c0 -19 8 -28 43 -41 69 -26 157 -39 237 -33 76 6 140 22
140 37 0 14 -91 31 -210 40 -63 5 -136 12 -162 16 -46 6 -48 5 -48 -19z"/>
<path d="M2860 2718 c0 -13 9 -37 20 -55 24 -40 87 -61 225 -72 121 -11 519 2
557 17 58 24 35 30 -145 36 -233 9 -415 30 -540 61 -55 14 -104 28 -108 31 -5
3 -9 -5 -9 -18z"/>
<path d="M5185 1820 c-44 -4 -123 -14 -175 -23 -52 -9 -140 -21 -195 -27 -190
-21 -310 -41 -333 -56 -13 -9 -22 -17 -20 -19 3 -3 327 15 623 35 179 12 483
48 503 59 11 6 10 10 -4 22 -20 16 -263 22 -399 9z"/>
<path d="M1936 1716 c32 -103 149 -131 429 -103 125 13 254 15 766 10 339 -3
625 -3 635 1 15 7 10 11 -26 20 -25 7 -71 29 -104 50 l-59 37 -824 3 -824 3 7
-21z"/>
<path d="M2782 1118 c-21 -26 8 -47 86 -63 63 -13 212 -15 1030 -15 928 0
1251 5 1235 20 -11 10 -98 37 -148 45 -22 4 -510 9 -1085 10 -575 2 -1059 6
-1076 10 -21 5 -34 2 -42 -7z"/>
</g>
</svg>
